<?xml version="1.0" standalone="no"?>
<!DOCTYPE svg PUBLIC "-//W3C//DTD SVG 20010904//EN"
 "http://www.w3.org/TR/2001/REC-SVG-20010904/DTD/svg10.dtd">
<svg version="1.0" xmlns="http://www.w3.org/2000/svg"
 width="1920.000000pt" height="1280.000000pt" viewBox="0 0 1920.000000 1280.000000"
 preserveAspectRatio="xMidYMid meet">

<g transform="translate(0.000000,1280.000000) scale(0.100000,-0.100000)"
fill="#000000" stroke="none">
<path d="M9380 12157 c-3 -2 -63 -7 -135 -11 -167 -8 -388 -31 -540 -56 -38
-7 -79 -14 -90 -15 -203 -29 -594 -129 -865 -220 -151 -51 -454 -169 -475
-184 -5 -4 -48 -24 -95 -44 -161 -68 -466 -235 -685 -375 -260 -166 -410 -281
-754 -573 -80 -69 -392 -386 -480 -489 -447 -522 -775 -1057 -1008 -1645 -98
-246 -228 -649 -248 -770 -4 -22 -14 -65 -21 -95 -8 -30 -21 -86 -28 -125 -13
-62 -18 -90 -31 -170 -37 -215 -68 -475 -76 -640 -7 -135 -4 -614 4 -735 7
-110 14 -184 36 -370 13 -105 57 -364 76 -445 73 -312 120 -481 188 -675 25
-69 48 -134 52 -145 4 -11 24 -60 43 -110 209 -545 565 -1133 980 -1620 97
-113 445 -469 533 -544 127 -108 245 -206 283 -236 22 -16 56 -43 77 -60 55
-44 241 -174 344 -240 50 -31 106 -68 125 -80 123 -81 421 -239 604 -321 54
-25 117 -53 140 -64 154 -70 438 -169 726 -254 90 -27 404 -99 480 -111 25 -4
54 -9 65 -11 111 -22 408 -59 578 -71 132 -10 702 -10 834 0 170 12 467 49
578 71 11 2 40 7 65 11 76 12 390 84 480 111 288 85 572 184 726 254 23 11 86
39 140 64 183 82 481 240 604 321 19 12 76 49 125 80 103 66 289 196 344 240
21 17 55 44 77 60 38 30 156 128 283 236 88 75 436 431 533 544 415 487 771
1075 980 1620 19 50 39 99 43 110 4 11 27 76 52 145 68 194 115 363 188 675
44 189 96 564 112 815 8 121 11 600 4 735 -8 165 -39 425 -76 640 -13 80 -18
108 -31 170 -7 39 -20 95 -28 125 -7 30 -17 73 -21 95 -11 64 -82 307 -140
475 -248 728 -597 1334 -1116 1940 -88 103 -400 420 -480 489 -344 292 -494
407 -754 573 -219 140 -524 307 -685 375 -47 20 -90 40 -95 44 -21 15 -324
133 -475 184 -271 91 -662 191 -865 220 -11 1 -65 10 -120 18 -163 25 -251 35
-460 53 -75 7 -620 17 -625 11z m338 -2254 c63 -192 140 -429 172 -528 32 -99
181 -556 330 -1015 149 -459 287 -883 306 -942 l35 -108 1546 -2 1546 -3 -559
-406 c-307 -224 -833 -606 -1169 -849 -335 -243 -645 -468 -687 -499 -43 -31
-77 -63 -78 -71 0 -8 22 -82 49 -165 28 -82 104 -316 170 -520 66 -203 210
-647 320 -985 109 -338 245 -757 301 -930 56 -173 104 -318 107 -322 15 -26
-47 16 -328 220 -173 125 -734 533 -1247 905 l-933 678 -142 -104 c-78 -57
-482 -350 -897 -652 -415 -302 -909 -660 -1097 -797 -316 -229 -385 -277 -371
-252 3 5 108 324 233 709 124 385 260 801 300 925 41 124 131 401 200 615 70
215 147 451 171 526 24 75 44 142 44 150 -1 8 -35 39 -78 70 -42 31 -351 255
-687 499 -335 243 -862 625 -1169 849 l-559 406 1546 3 1546 2 45 138 c124
383 805 2480 854 2630 31 94 59 172 62 172 3 0 56 -156 118 -347z"/>
</g>
</svg>
