<svg width="24" height="25" viewBox="0 0 24 25" fill="none" xmlns="http://www.w3.org/2000/svg">
<path d="M7.7168 0.257812C8.26853 -0.115948 9.00931 -0.0828919 9.52637 0.354492L16.3359 6.11523C16.6727 6.40024 16.8672 6.81958 16.8672 7.26074V16.5781C16.8671 17.4063 16.1954 18.0779 15.3672 18.0781C14.5388 18.0781 13.8673 17.4065 13.8672 16.5781V7.95508L8.54004 3.4502L3 7.97168V22.5654C2.99992 23.3937 2.32821 24.0652 1.5 24.0654C0.671624 24.0654 8.28004e-05 23.3938 0 22.5654V7.26074C0 6.81023 0.202746 6.38351 0.551758 6.09863L7.6084 0.337891L7.7168 0.257812ZM22.4238 2.43945C23.2523 2.43945 23.9238 3.11103 23.9238 3.93945V22.5654C23.9238 23.3938 23.2522 24.0654 22.4238 24.0654H8.55664C7.72842 24.0652 7.05665 23.3937 7.05664 22.5654V9.81348C7.05664 8.98519 7.72841 8.31371 8.55664 8.31348C9.38507 8.31348 10.0566 8.98505 10.0566 9.81348V21.0654H20.9238V3.93945C20.9238 3.11115 21.5956 2.43965 22.4238 2.43945Z" fill="#D92641"/>
</svg>
